0
SECTION
2
HEADER
9
$INSUNITS
70
4
9
$ACADVER
1
AC1014
9
$HANDSEED
5
FFFF
0
ENDSEC
0
SECTION
2
TABLES
0
TABLE
2
VPORT
5
8
100
AcDbSymbolTable
0
ENDTAB
0
TABLE
2
LTYPE
5
5
100
AcDbSymbolTable
0
LTYPE
5
14
100
AcDbSymbolTableRecord
100
AcDbLinetypeTableRecord
2
BYBLOCK
70
0
0
LTYPE
5
15
100
AcDbSymbolTableRecord
100
AcDbLinetypeTableRecord
2
BYLAYER
70
0
0
ENDTAB
0
TABLE
2
LAYER
5
2
100
AcDbSymbolTable
70
2
0
LAYER
5
50
100
AcDbSymbolTableRecord
100
AcDbLayerTableRecord
2
0
70
0
6
CONTINUOUS
0
ENDTAB
0
TABLE
2
STYLE
5
3
100
AcDbSymbolTable
70
1
0
STYLE
5
11
100
AcDbSymbolTableRecord
100
AcDbTextStyleTableRecord
2
STANDARD
70
0
0
ENDTAB
0
TABLE
2
VIEW
5
6
100
AcDbSymbolTable
70
0
0
ENDTAB
0
TABLE
2
UCS
5
7
100
AcDbSymbolTable
70
0
0
ENDTAB
0
TABLE
2
APPID
5
9
100
AcDbSymbolTable
70
2
0
APPID
5
12
100
AcDbSymbolTableRecord
100
AcDbRegAppTableRecord
2
ACAD
70
0
0
ENDTAB
0
TABLE
2
DIMSTYLE
5
A
100
AcDbSymbolTable
70
1
0
ENDTAB
0
TABLE
2
BLOCK_RECORD
5
1
100
AcDbSymbolTable
70
1
0
BLOCK_RECORD
5
1F
100
AcDbSymbolTableRecord
100
AcDbBlockTableRecord
2
*MODEL_SPACE
0
BLOCK_RECORD
5
1B
100
AcDbSymbolTableRecord
100
AcDbBlockTableRecord
2
*PAPER_SPACE
0
ENDTAB
0
ENDSEC
0
SECTION
2
BLOCKS
0
BLOCK
5
20
100
AcDbEntity
100
AcDbBlockBegin
2
*MODEL_SPACE
0
ENDBLK
5
21
100
AcDbEntity
100
AcDbBlockEnd
0
BLOCK
5
1C
100
AcDbEntity
100
AcDbBlockBegin
2
*PAPER_SPACE
0
ENDBLK
5
1D
100
AcDbEntity
100
AcDbBlockEnd
0
ENDSEC
0
SECTION
2
ENTITIES
0
CIRCLE
5
100
100
AcDbEntity
8
0
100
AcDbCircle
10
-159.78606035094228
20
119.1577563910289
30
0
40
2.0000000000000107
210
0
220
-0
230
1
0
CIRCLE
5
101
100
AcDbEntity
8
0
100
AcDbCircle
10
-159.78270356118554
20
87.152970364427091
30
0
40
1.9999999999999929
210
0
220
-0
230
1
0
CIRCLE
5
102
100
AcDbEntity
8
0
100
AcDbCircle
10
-127.78088109693586
20
119.16501393309065
30
0
40
1.9999999999999929
210
0
220
-0
230
1
0
CIRCLE
5
103
100
AcDbEntity
8
0
100
AcDbCircle
10
-127.77518557117014
20
87.172032602405608
30
0
40
1.9999999999999929
210
0
220
-0
230
1
0
LWPOLYLINE
5
104
100
AcDbEntity
8
0
100
AcDbPolyline
90
24
70
1
43
0.0
10
-137.79166825851578
20
103.13279514952356
10
-137.85156825851575
20
102.98779514952359
10
-137.94686825851579
20
102.86379514952358
10
-138.07116825851583
20
102.76779514952364
10
-138.2158682585158
20
102.70779514952355
10
-138.37116825851578
20
102.68779514952357
10
-138.52646825851579
20
102.70779514952355
10
-138.67116825851579
20
102.76779514952364
10
-138.7954682585158
20
102.86379514952358
10
-138.89076825851575
20
102.98779514952359
10
-138.95076825851572
20
103.13279514952356
10
-138.97116825851575
20
103.28779514952356
10
-138.95076825851572
20
103.44279514952355
10
-138.89076825851575
20
103.58779514952354
10
-138.7954682585158
20
103.71179514952358
10
-138.67116825851579
20
103.80779514952359
10
-138.52646825851579
20
103.86779514952354
10
-138.37116825851578
20
103.8877951495236
10
-138.2158682585158
20
103.86779514952354
10
-138.07116825851583
20
103.80779514952359
10
-137.94686825851579
20
103.71179514952358
10
-137.85156825851575
20
103.58779514952354
10
-137.79166825851578
20
103.44279514952355
10
-137.77116825851579
20
103.28779514952356
0
LWPOLYLINE
5
105
100
AcDbEntity
8
0
100
AcDbPolyline
90
24
70
1
43
0.0
10
-149.67116825851562
20
98.8377951495236
10
-149.6507682585156
20
98.992795149523616
10
-149.5907682585156
20
99.137795149523612
10
-149.49546825851564
20
99.26179514952365
10
-149.37116825851564
20
99.357795149523596
10
-149.22646825851564
20
99.417795149523585
10
-149.07116825851563
20
99.437795149523609
10
-148.91586825851564
20
99.417795149523585
10
-148.77116825851564
20
99.357795149523596
10
-148.64686825851564
20
99.26179514952365
10
-148.55156825851563
20
99.137795149523612
10
-148.49166825851563
20
98.992795149523616
10
-148.47116825851563
20
98.8377951495236
10
-148.49166825851563
20
98.682795149523642
10
-148.55156825851563
20
98.537795149523589
10
-148.64686825851564
20
98.413795149523622
10
-148.77116825851564
20
98.317795149523604
10
-148.91586825851564
20
98.257795149523602
10
-149.07116825851563
20
98.237795149523649
10
-149.22646825851564
20
98.257795149523602
10
-149.37116825851564
20
98.317795149523604
10
-149.49546825851564
20
98.413795149523622
10
-149.5907682585156
20
98.537795149523589
10
-149.6507682585156
20
98.682795149523642
0
LWPOLYLINE
5
106
100
AcDbEntity
8
0
100
AcDbPolyline
90
4
70
1
43
0.0
10
-149.67116825851562
20
96.457795149523605
10
-149.67116825851562
20
97.657795149523622
10
-148.47116825851563
20
97.657795149523622
10
-148.47116825851563
20
96.457795149523605
0
LWPOLYLINE
5
107
100
AcDbEntity
8
0
100
AcDbPolyline
90
24
70
1
43
0.0
10
-149.37116825851561
20
105.43779514952355
10
-149.49546825851564
20
105.53379514952354
10
-149.5907682585156
20
105.65779514952351
10
-149.6507682585156
20
105.80279514952349
10
-149.67116825851562
20
105.95779514952352
10
-149.6507682585156
20
106.11279514952355
10
-149.5907682585156
20
106.25779514952353
10
-149.49546825851564
20
106.38179514952353
10
-149.37116825851561
20
106.4777951495235
10
-149.22646825851561
20
106.5377951495235
10
-149.07116825851563
20
106.55779514952356
10
-148.91586825851564
20
106.5377951495235
10
-148.77116825851564
20
106.4777951495235
10
-148.64686825851564
20
106.38179514952353
10
-148.55156825851563
20
106.25779514952353
10
-148.49166825851563
20
106.11279514952355
10
-148.47116825851563
20
105.95779514952352
10
-148.49166825851563
20
105.80279514952349
10
-148.55156825851563
20
105.65779514952351
10
-148.64686825851564
20
105.53379514952354
10
-148.77116825851564
20
105.43779514952355
10
-148.91586825851564
20
105.37779514952355
10
-149.07116825851563
20
105.35779514952355
10
-149.22646825851561
20
105.37779514952355
0
LWPOLYLINE
5
108
100
AcDbEntity
8
0
100
AcDbPolyline
90
24
70
1
43
0.0
10
-137.85156825851575
20
101.8077951495236
10
-137.79166825851578
20
101.66279514952357
10
-137.77116825851579
20
101.50779514952363
10
-137.79166825851578
20
101.35279514952359
10
-137.85156825851575
20
101.20779514952361
10
-137.94686825851579
20
101.08379514952361
10
-138.07116825851583
20
100.98779514952361
10
-138.2158682585158
20
100.92779514952363
10
-138.37116825851578
20
100.90779514952362
10
-138.52646825851579
20
100.92779514952363
10
-138.67116825851579
20
100.98779514952361
10
-138.7954682585158
20
101.08379514952361
10
-138.89076825851575
20
101.20779514952361
10
-138.95076825851572
20
101.35279514952359
10
-138.97116825851575
20
101.50779514952363
10
-138.95076825851572
20
101.66279514952357
10
-138.89076825851575
20
101.8077951495236
10
-138.7954682585158
20
101.93179514952361
10
-138.67116825851579
20
102.02779514952357
10
-138.52646825851579
20
102.08779514952357
10
-138.37116825851578
20
102.10779514952357
10
-138.2158682585158
20
102.08779514952357
10
-138.07116825851583
20
102.02779514952357
10
-137.94686825851579
20
101.93179514952361
0
LWPOLYLINE
5
109
100
AcDbEntity
8
0
100
AcDbPolyline
90
24
70
1
43
0.0
10
-149.67116825851562
20
100.61779514952356
10
-149.6507682585156
20
100.77279514952359
10
-149.5907682585156
20
100.91779514952358
10
-149.49546825851564
20
101.04179514952357
10
-149.37116825851564
20
101.13779514952358
10
-149.22646825851564
20
101.19779514952359
10
-149.07116825851563
20
101.21779514952358
10
-148.91586825851564
20
101.19779514952359
10
-148.77116825851564
20
101.13779514952358
10
-148.64686825851564
20
101.04179514952357
10
-148.55156825851563
20
100.91779514952358
10
-148.49166825851563
20
100.77279514952359
10
-148.47116825851563
20
100.61779514952356
10
-148.49166825851563
20
100.4627951495236
10
-148.55156825851563
20
100.31779514952362
10
-148.64686825851564
20
100.1937951495236
10
-148.77116825851564
20
100.09779514952359
10
-148.91586825851564
20
100.03779514952359
10
-149.07116825851563
20
100.01779514952361
10
-149.22646825851564
20
100.03779514952359
10
-149.37116825851564
20
100.09779514952359
10
-149.49546825851564
20
100.1937951495236
10
-149.5907682585156
20
100.31779514952362
10
-149.6507682585156
20
100.4627951495236
0
LWPOLYLINE
5
110
100
AcDbEntity
8
0
100
AcDbPolyline
90
24
70
1
43
0.0
10
-138.07116825851583
20
99.207795149523605
10
-138.2158682585158
20
99.14779514952366
10
-138.37116825851578
20
99.127795149523635
10
-138.52646825851579
20
99.14779514952366
10
-138.67116825851579
20
99.207795149523605
10
-138.7954682585158
20
99.303795149523623
10
-138.89076825851575
20
99.427795149523632
10
-138.95076825851572
20
99.572795149523614
10
-138.97116825851575
20
99.727795149523615
10
-138.95076825851572
20
99.882795149523602
10
-138.89076825851575
20
100.02779514952358
10
-138.7954682585158
20
100.15179514952365
10
-138.67116825851579
20
100.2477951495236
10
-138.52646825851579
20
100.3077951495236
10
-138.37116825851578
20
100.3277951495236
10
-138.2158682585158
20
100.3077951495236
10
-138.07116825851583
20
100.2477951495236
10
-137.94686825851579
20
100.15179514952365
10
-137.85156825851575
20
100.02779514952358
10
-137.79166825851578
20
99.882795149523602
10
-137.77116825851579
20
99.727795149523615
10
-137.79166825851578
20
99.572795149523614
10
-137.85156825851575
20
99.427795149523632
10
-137.94686825851579
20
99.303795149523623
0
LWPOLYLINE
5
111
100
AcDbEntity
8
0
100
AcDbPolyline
90
24
70
1
43
0.0
10
-138.67116825851579
20
110.92779514952352
10
-138.52646825851579
20
110.98779514952348
10
-138.37116825851578
20
111.0077951495235
10
-138.2158682585158
20
110.98779514952348
10
-138.07116825851583
20
110.92779514952352
10
-137.94686825851579
20
110.83179514952346
10
-137.85156825851575
20
110.70779514952346
10
-137.79166825851578
20
110.56279514952348
10
-137.77116825851579
20
110.40779514952348
10
-137.79166825851578
20
110.25279514952348
10
-137.85156825851575
20
110.1077951495235
10
-137.94686825851579
20
109.9837951495235
10
-138.07116825851583
20
109.8877951495235
10
-138.2158682585158
20
109.8277951495235
10
-138.37116825851578
20
109.80779514952354
10
-138.52646825851579
20
109.8277951495235
10
-138.67116825851579
20
109.8877951495235
10
-138.7954682585158
20
109.9837951495235
10
-138.89076825851575
20
110.1077951495235
10
-138.95076825851572
20
110.25279514952348
10
-138.97116825851575
20
110.40779514952348
10
-138.95076825851572
20
110.56279514952348
10
-138.89076825851575
20
110.70779514952346
10
-138.7954682585158
20
110.83179514952346
0
LWPOLYLINE
5
112
100
AcDbEntity
8
0
100
AcDbPolyline
90
24
70
1
43
0.0
10
-137.79166825851578
20
108.47279514952349
10
-137.85156825851575
20
108.3277951495235
10
-137.94686825851579
20
108.20379514952342
10
-138.07116825851583
20
108.1077951495235
10
-138.2158682585158
20
108.04779514952349
10
-138.37116825851578
20
108.0277951495235
10
-138.52646825851579
20
108.04779514952349
10
-138.67116825851579
20
108.1077951495235
10
-138.7954682585158
20
108.20379514952342
10
-138.89076825851575
20
108.3277951495235
10
-138.95076825851572
20
108.47279514952349
10
-138.97116825851575
20
108.62779514952349
10
-138.95076825851572
20
108.78279514952351
10
-138.89076825851575
20
108.9277951495235
10
-138.7954682585158
20
109.0517951495235
10
-138.67116825851579
20
109.1477951495235
10
-138.52646825851579
20
109.20779514952349
10
-138.37116825851578
20
109.22779514952352
10
-138.2158682585158
20
109.20779514952349
10
-138.07116825851583
20
109.1477951495235
10
-137.94686825851579
20
109.0517951495235
10
-137.85156825851575
20
108.9277951495235
10
-137.79166825851578
20
108.78279514952351
10
-137.77116825851579
20
108.62779514952349
0
LWPOLYLINE
5
113
100
AcDbEntity
8
0
100
AcDbPolyline
90
24
70
1
43
0.0
10
-149.22646825851561
20
107.15779514952347
10
-149.37116825851561
20
107.21779514952345
10
-149.49546825851564
20
107.3137951495235
10
-149.5907682585156
20
107.4377951495235
10
-149.6507682585156
20
107.58279514952349
10
-149.67116825851562
20
107.73779514952351
10
-149.6507682585156
20
107.89279514952349
10
-149.5907682585156
20
108.03779514952346
10
-149.49546825851564
20
108.16179514952346
10
-149.37116825851561
20
108.25779514952346
10
-149.22646825851561
20
108.3177951495235
10
-149.07116825851563
20
108.33779514952352
10
-148.91586825851564
20
108.3177951495235
10
-148.77116825851564
20
108.25779514952346
10
-148.64686825851564
20
108.16179514952346
10
-148.55156825851563
20
108.03779514952346
10
-148.49166825851563
20
107.89279514952349
10
-148.47116825851563
20
107.73779514952351
10
-148.49166825851563
20
107.58279514952349
10
-148.55156825851563
20
107.4377951495235
10
-148.64686825851564
20
107.3137951495235
10
-148.77116825851564
20
107.21779514952345
10
-148.91586825851564
20
107.15779514952347
10
-149.07116825851563
20
107.13779514952351
0
LWPOLYLINE
5
114
100
AcDbEntity
8
0
100
AcDbPolyline
90
24
70
1
43
0.0
10
-148.49166825851563
20
104.02279514952355
10
-148.55156825851563
20
103.87779514952356
10
-148.64686825851564
20
103.75379514952357
10
-148.77116825851564
20
103.65779514952357
10
-148.91586825851564
20
103.59779514952353
10
-149.07116825851563
20
103.57779514952355
10
-149.22646825851564
20
103.59779514952353
10
-149.37116825851564
20
103.65779514952357
10
-149.49546825851564
20
103.75379514952357
10
-149.5907682585156
20
103.87779514952356
10
-149.6507682585156
20
104.02279514952355
10
-149.67116825851562
20
104.17779514952356
10
-149.6507682585156
20
104.33279514952355
10
-149.5907682585156
20
104.47779514952356
10
-149.49546825851564
20
104.60179514952358
10
-149.37116825851564
20
104.69779514952357
10
-149.22646825851564
20
104.75779514952353
10
-149.07116825851563
20
104.77779514952357
10
-148.91586825851564
20
104.75779514952353
10
-148.77116825851564
20
104.69779514952357
10
-148.64686825851564
20
104.60179514952358
10
-148.55156825851563
20
104.47779514952356
10
-148.49166825851563
20
104.33279514952355
10
-148.47116825851563
20
104.17779514952356
0
LWPOLYLINE
5
115
100
AcDbEntity
8
0
100
AcDbPolyline
90
24
70
1
43
0.0
10
-149.49546825851564
20
109.94179514952341
10
-149.37116825851561
20
110.0377951495235
10
-149.22646825851561
20
110.09779514952349
10
-149.07116825851563
20
110.11779514952349
10
-148.91586825851564
20
110.09779514952349
10
-148.77116825851564
20
110.0377951495235
10
-148.64686825851564
20
109.94179514952341
10
-148.55156825851563
20
109.8177951495235
10
-148.49166825851563
20
109.67279514952349
10
-148.47116825851563
20
109.51779514952349
10
-148.49166825851563
20
109.36279514952348
10
-148.55156825851563
20
109.2177951495235
10
-148.64686825851564
20
109.09379514952347
10
-148.77116825851564
20
108.9977951495235
10
-148.91586825851564
20
108.9377951495235
10
-149.07116825851563
20
108.9177951495235
10
-149.22646825851561
20
108.9377951495235
10
-149.37116825851561
20
108.9977951495235
10
-149.49546825851564
20
109.09379514952347
10
-149.5907682585156
20
109.2177951495235
10
-149.6507682585156
20
109.36279514952348
10
-149.67116825851562
20
109.51779514952349
10
-149.6507682585156
20
109.67279514952349
10
-149.5907682585156
20
109.8177951495235
0
LWPOLYLINE
5
116
100
AcDbEntity
8
0
100
AcDbPolyline
90
24
70
1
43
0.0
10
-138.95076825851572
20
98.102795149523644
10
-138.89076825851575
20
98.247795149523668
10
-138.7954682585158
20
98.371795149523678
10
-138.67116825851579
20
98.46779514952361
10
-138.52646825851579
20
98.527795149523655
10
-138.37116825851578
20
98.547795149523637
10
-138.2158682585158
20
98.527795149523655
10
-138.07116825851583
20
98.46779514952361
10
-137.94686825851579
20
98.371795149523678
10
-137.85156825851575
20
98.247795149523668
10
-137.79166825851578
20
98.102795149523644
10
-137.77116825851579
20
97.947795149523657
10
-137.79166825851578
20
97.792795149523656
10
-137.85156825851575
20
97.64779514952366
10
-137.94686825851579
20
97.523795149523608
10
-138.07116825851583
20
97.427795149523661
10
-138.2158682585158
20
97.367795149523616
10
-138.37116825851578
20
97.347795149523662
10
-138.52646825851579
20
97.367795149523616
10
-138.67116825851579
20
97.427795149523661
10
-138.7954682585158
20
97.523795149523608
10
-138.89076825851575
20
97.64779514952366
10
-138.95076825851572
20
97.792795149523656
10
-138.97116825851575
20
97.947795149523657
0
LWPOLYLINE
5
117
100
AcDbEntity
8
0
100
AcDbPolyline
90
32
70
1
43
0.0
10
-139.53836825851576
20
94.944795149523628
10
-139.62546825851572
20
94.857795149523668
10
-139.72976825851575
20
94.791795149523665
10
-139.8459682585158
20
94.751795149523616
10
-139.96836825851574
20
94.737795149523663
10
-147.46836825851562
20
94.737795149523663
10
-147.59076825851562
20
94.751795149523616
10
-147.70696825851564
20
94.791795149523665
10
-147.81126825851564
20
94.857795149523668
10
-147.89836825851563
20
94.944795149523628
10
-147.96386825851562
20
95.048795149523642
10
-148.00456825851563
20
95.16579514952366
10
-148.01836825851564
20
95.287795149523646
10
-148.01836825851564
20
111.0377951495235
10
-148.00456825851563
20
111.1597951495235
10
-147.96386825851562
20
111.27679514952348
10
-147.89836825851563
20
111.38079514952349
10
-147.81126825851564
20
111.46779514952348
10
-147.70696825851564
20
111.53379514952346
10
-147.59076825851562
20
111.57379514952351
10
-147.46836825851562
20
111.58779514952349
10
-139.96836825851574
20
111.58779514952349
10
-139.8459682585158
20
111.57379514952351
10
-139.72976825851575
20
111.53379514952346
10
-139.62546825851572
20
111.46779514952348
10
-139.53836825851576
20
111.38079514952349
10
-139.47286825851575
20
111.27679514952348
10
-139.43216825851576
20
111.1597951495235
10
-139.41836825851576
20
111.0377951495235
10
-139.41836825851576
20
95.287795149523646
10
-139.43216825851576
20
95.16579514952366
10
-139.47286825851575
20
95.04879514952367
0
LWPOLYLINE
5
118
100
AcDbEntity
8
0
100
AcDbPolyline
90
24
70
1
43
0.0
10
-137.79166825851578
20
104.91279514952353
10
-137.85156825851575
20
104.76779514952355
10
-137.94686825851579
20
104.64379514952356
10
-138.07116825851583
20
104.54779514952357
10
-138.2158682585158
20
104.48779514952356
10
-138.37116825851578
20
104.46779514952355
10
-138.52646825851579
20
104.48779514952356
10
-138.67116825851579
20
104.54779514952357
10
-138.7954682585158
20
104.64379514952356
10
-138.89076825851575
20
104.76779514952355
10
-138.95076825851572
20
104.91279514952353
10
-138.97116825851575
20
105.06779514952356
10
-138.95076825851572
20
105.22279514952359
10
-138.89076825851575
20
105.36779514952354
10
-138.7954682585158
20
105.49179514952357
10
-138.67116825851579
20
105.58779514952352
10
-138.52646825851579
20
105.64779514952352
10
-138.37116825851578
20
105.66779514952351
10
-138.2158682585158
20
105.64779514952352
10
-138.07116825851583
20
105.58779514952352
10
-137.94686825851579
20
105.49179514952357
10
-137.85156825851575
20
105.36779514952354
10
-137.79166825851578
20
105.22279514952359
10
-137.77116825851579
20
105.06779514952356
0
LWPOLYLINE
5
119
100
AcDbEntity
8
0
100
AcDbPolyline
90
24
70
1
43
0.0
10
-148.64686825851564
20
101.97379514952358
10
-148.77116825851564
20
101.87779514952355
10
-148.91586825851564
20
101.81779514952355
10
-149.07116825851563
20
101.79779514952359
10
-149.22646825851564
20
101.81779514952355
10
-149.37116825851564
20
101.87779514952355
10
-149.49546825851564
20
101.97379514952358
10
-149.5907682585156
20
102.09779514952356
10
-149.6507682585156
20
102.24279514952356
10
-149.67116825851562
20
102.39779514952359
10
-149.6507682585156
20
102.55279514952356
10
-149.5907682585156
20
102.6977951495236
10
-149.49546825851564
20
102.82179514952361
10
-149.37116825851564
20
102.91779514952356
10
-149.22646825851564
20
102.97779514952354
10
-149.07116825851563
20
102.99779514952355
10
-148.91586825851564
20
102.97779514952354
10
-148.77116825851564
20
102.91779514952356
10
-148.64686825851564
20
102.82179514952361
10
-148.55156825851563
20
102.6977951495236
10
-148.49166825851563
20
102.55279514952356
10
-148.47116825851563
20
102.39779514952359
10
-148.49166825851563
20
102.24279514952356
10
-148.55156825851563
20
102.09779514952356
0
LWPOLYLINE
5
120
100
AcDbEntity
8
0
100
AcDbPolyline
90
24
70
1
43
0.0
10
-137.85156825851575
20
107.14779514952352
10
-137.79166825851578
20
107.00279514952355
10
-137.77116825851579
20
106.84779514952352
10
-137.79166825851578
20
106.69279514952352
10
-137.85156825851575
20
106.54779514952351
10
-137.94686825851579
20
106.42379514952351
10
-138.07116825851583
20
106.32779514952354
10
-138.2158682585158
20
106.26779514952354
10
-138.37116825851578
20
106.24779514952354
10
-138.52646825851579
20
106.26779514952354
10
-138.67116825851579
20
106.32779514952354
10
-138.7954682585158
20
106.42379514952351
10
-138.89076825851575
20
106.54779514952351
10
-138.95076825851572
20
106.69279514952352
10
-138.97116825851575
20
106.84779514952352
10
-138.95076825851572
20
107.00279514952355
10
-138.89076825851575
20
107.14779514952352
10
-138.7954682585158
20
107.27179514952351
10
-138.67116825851579
20
107.36779514952352
10
-138.52646825851579
20
107.42779514952352
10
-138.37116825851578
20
107.44779514952353
10
-138.2158682585158
20
107.42779514952352
10
-138.07116825851583
20
107.36779514952352
10
-137.94686825851579
20
107.27179514952351
0
LWPOLYLINE
5
121
100
AcDbEntity
8
0
100
AcDbPolyline
90
4
70
1
43
0.0
10
-29.982618598581734
20
76.574371191536258
10
-43.916722266357525
20
78.285298432384792
10
-42.205795025508976
20
92.219499644473061
10
-28.271691357733193
20
90.508572403624527
0
LWPOLYLINE
5
122
100
AcDbEntity
8
0
100
AcDbPolyline
90
4
70
1
43
0.0
10
-101.63791505400482
20
117.6218900428165
10
-115.19828820800922
20
121.25543480892468
10
-111.56485054938136
20
134.81589976934083
10
-98.004377938430906
20
131.18236265376694
0
LWPOLYLINE
5
123
100
AcDbEntity
8
0
100
AcDbPolyline
90
4
70
1
43
0.0
10
-100.74103526608289
20
92.759692396437003
10
-98.544865235965844
20
106.62560493925696
10
-84.678853236199814
20
104.42943873440711
10
-86.875023266316845
20
90.563522366319958
0
LWPOLYLINE
5
124
100
AcDbEntity
8
0
100
AcDbPolyline
90
4
70
1
43
0.0
10
-102.31348018535117
20
65.467480400795608
10
-88.28331832138835
20
65.957434006566672
10
-87.793362802983722
20
51.927165035123501
10
-101.82352466694653
20
51.437211429352423
0
LWPOLYLINE
5
125
100
AcDbEntity
8
0
100
AcDbPolyline
90
4
70
1
43
0.0
10
-30.251561656516174
20
57.113294889743003
10
-44.290355235816421
20
57.113294889743003
10
-44.290351410549277
20
71.152087512726453
10
-30.251561656516174
20
71.152085600092875
0
LWPOLYLINE
5
126
100
AcDbEntity
8
0
100
AcDbPolyline
90
4
70
1
43
0.0
10
-63.539543295623247
20
52.80960348321485
10
-63.784521054825589
20
66.846288383995372
10
-49.747833285094679
20
67.091266143197686
10
-49.502855525892365
20
53.054680699363232
0
LWPOLYLINE
5
127
100
AcDbEntity
8
0
100
AcDbPolyline
90
4
70
1
43
0.0
10
-66.058500844162083
20
98.643852220093095
10
-68.012301947277194
20
84.741737348909083
10
-81.91451627540728
20
86.695534626756952
10
-79.960715172292183
20
100.59764949794101
0
LWPOLYLINE
5
128
100
AcDbEntity
8
0
100
AcDbPolyline
90
4
70
1
43
0.0
10
-243.26795717048788
20
57.141272893721727
10
-257.30676413822312
20
57.141272893721727
10
-257.30676413822312
20
71.18006360407162
10
-243.26795717048788
20
71.18006360407162
0
LWPOLYLINE
5
129
100
AcDbEntity
8
0
100
AcDbPolyline
90
4
70
1
43
0.0
10
-180.20169563420757
20
74.175842616235059
10
-166.17153377024471
20
74.665796222006122
10
-165.68157825184014
20
60.635527250562973
10
-179.71174011580291
20
60.145573644791916
0
LWPOLYLINE
5
130
100
AcDbEntity
8
0
100
AcDbPolyline
90
4
70
1
43
0.0
10
-80.196871865432811
20
123.2934606442798
10
-83.59315826145945
20
109.67162309761333
10
-97.214896351179874
20
113.06790949363995
10
-93.818609955153278
20
126.68974704030643
0
LWPOLYLINE
5
131
100
AcDbEntity
8
0
100
AcDbPolyline
90
4
70
1
43
0.0
10
-107.27288549931984
20
79.352245772793765
10
-121.2583299902294
20
80.575826327438008
10
-120.03474943558513
20
94.561171361401563
10
-106.0494044016216
20
93.337590806757277
0
LWPOLYLINE
5
132
100
AcDbEntity
8
0
100
AcDbPolyline
90
4
70
1
43
0.0
10
-119.416043075245
20
125.12863256235407
10
-132.97641622924945
20
128.76217732846229
10
-129.342963269553
20
142.32264228887846
10
-115.78250595967114
20
138.68910517330454
0
LWPOLYLINE
5
133
100
AcDbEntity
8
0
100
AcDbPolyline
90
4
70
1
43
0.0
10
-242.55710012436055
20
105.53850226620325
10
-228.77622327041766
20
108.21720297117521
10
-226.09752639071289
20
94.436326117232298
10
-239.8782961371754
20
91.757625412260367
0
LWPOLYLINE
5
134
100
AcDbEntity
8
0
100
AcDbPolyline
90
4
70
1
43
0.0
10
-200.68309405136247
20
90.591599827244778
10
-202.87925643094525
20
104.45751237006473
10
-189.0132444311792
20
106.65368240018176
10
-186.81708205159649
20
92.787769857361795
0
LWPOLYLINE
5
135
100
AcDbEntity
8
0
100
AcDbPolyline
90
4
70
1
43
0.0
10
-83.016759355864309
20
65.859463176801668
10
-82.526811487993953
20
79.889734060878425
10
-68.49664197349685
20
79.399778542473783
10
-68.986597491901506
20
65.36950765839704
0
LWPOLYLINE
5
136
100
AcDbEntity
8
0
100
AcDbPolyline
90
4
70
1
43
0.0
10
-239.22227812099601
20
86.328121541693648
10
-225.23684128062072
20
87.551702096337948
10
-224.01336783345684
20
73.566357062374422
10
-237.99869756635172
20
72.342776507730164
0
LWPOLYLINE
5
137
100
AcDbEntity
8
0
100
AcDbPolyline
90
4
70
1
43
0.0
10
-158.1129658613219
20
142.32264993941274
10
-154.47942109521367
20
128.76217732846229
10
-168.03990135669846
20
125.12863256235407
10
-171.67333901532629
20
138.68910517330454
0
LWPOLYLINE
5
138
100
AcDbEntity
8
0
100
AcDbPolyline
90
4
70
1
43
0.0
10
-48.336332656146475
20
86.300143537714945
10
-49.559813753844693
20
72.314800416384983
10
-63.545258244754251
20
73.53838097102927
10
-62.321677690109993
20
87.523724092359203
0
LWPOLYLINE
5
139
100
AcDbEntity
8
0
100
AcDbPolyline
90
4
70
1
43
0.0
10
-38.558215354205529
20
112.06083140948898
10
-24.777436044575161
20
109.38212687924988
10
-27.456138662180685
20
95.601242374772681
10
-41.237015516123563
20
98.279946905011784
0
LWPOLYLINE
5
140
100
AcDbEntity
8
0
100
AcDbPolyline
90
4
70
1
43
0.0
10
-199.76576438522483
20
51.955142082785429
10
-199.27579356575154
20
65.98541009791181
10
-185.24563170178877
20
65.495456492140761
10
-185.73558722019334
20
51.465188477014372
0
LWPOLYLINE
5
141
100
AcDbEntity
8
0
100
AcDbPolyline
90
4
70
1
43
0.0
10
-186.08696096007168
20
86.081437713339824
10
-185.35212713941081
20
72.061900528902683
10
-199.37177716922903
20
71.327169990454991
10
-200.10650388240958
20
85.34670717489206
0
LWPOLYLINE
5
142
100
AcDbEntity
8
0
100
AcDbPolyline
90
4
70
1
43
0.0
10
-181.50882002353811
20
93.365568810736022
10
-167.52336788209419
20
94.589149365380294
10
-166.29989443493028
20
80.603804331416754
10
-180.28523946889376
20
79.380223776772482
0
LWPOLYLINE
5
143
100
AcDbEntity
8
0
100
AcDbPolyline
90
4
70
1
43
0.0
10
-257.57618535455208
20
76.602345370247818
10
-259.28712024593489
20
90.536550407603244
10
-245.35303379186132
20
92.24747764845182
10
-243.64209890047849
20
78.313272611096338
0
LWPOLYLINE
5
144
100
AcDbEntity
8
0
100
AcDbPolyline
90
4
70
1
43
0.0
10
-207.59769286569096
20
100.62572695886578
10
-205.64389941311023
20
86.72361208768173
10
-219.5461137412403
20
84.769814809833818
10
-221.49992249488972
20
98.671929681017886
0
LWPOLYLINE
5
145
100
AcDbEntity
8
0
100
AcDbPolyline
90
4
70
1
43
0.0
10
-87.451712892215866
20
85.318732996180543
10
-88.186447255930688
20
71.29919389910981
10
-102.20598252773428
20
72.033924437557516
10
-101.47124816401936
20
86.053463534628222
0
LWPOLYLINE
5
146
100
AcDbEntity
8
0
100
AcDbPolyline
90
4
70
1
43
0.0
10
-218.60720956834299
20
60.218976696247722
10
-204.57704770438016
20
59.729023090476652
10
-205.06700322278479
20
45.698754836271071
10
-219.09718038781625
20
46.188708681121334
0
LWPOLYLINE
5
147
100
AcDbEntity
8
0
100
AcDbPolyline
90
4
70
1
43
0.0
10
-172.3598367602045
20
121.28351226984945
10
-185.92030172062061
20
117.64996750374124
10
-189.55373937924844
20
131.21044011469178
10
-175.99338152631265
20
134.84398488079992
0
LWPOLYLINE
5
148
100
AcDbEntity
8
0
100
AcDbPolyline
90
4
70
1
43
0.0
10
-246.32140782292825
20
98.308024365936575
10
-260.10217756939073
20
95.629319835697473
10
-262.78099685764454
20
109.4101966896404
10
-249.00010470263311
20
112.08890121987947
0
LWPOLYLINE
5
149
100
AcDbEntity
8
0
100
AcDbPolyline
90
4
70
1
43
0.0
10
-219.06207973639312
20
79.427752721185357
10
-205.03191787243026
20
79.917708239589999
10
-204.54196235402571
20
65.887439268146835
10
-218.57212421798849
20
65.397485662375757
0
LWPOLYLINE
5
150
100
AcDbEntity
8
0
100
AcDbPolyline
90
4
70
1
43
0.0
10
-47.67961844134468
20
91.729544126068419
10
-61.460499120554715
20
94.408248656307507
10
-58.781695133369567
20
108.18912551025039
10
-45.000917736372728
20
105.51042480527849
0
LWPOLYLINE
5
151
100
AcDbEntity
8
0
100
AcDbPolyline
90
4
70
1
43
0.0
10
-193.73951501306041
20
126.71782450123119
10
-190.34322861703376
20
113.09598695456472
10
-203.9649590562199
20
109.6997005585381
10
-207.36126075331515
20
123.32153810520458
0
LWPOLYLINE
5
152
100
AcDbEntity
8
0
100
AcDbPolyline
90
4
70
1
43
0.0
10
-82.491106444360213
20
45.670677136267088
10
-82.981061962764841
20
59.70094562955186
10
-68.950900098802038
20
60.190899235322931
10
-68.460944580397381
20
46.160630981117343
0
LWPOLYLINE
5
153
100
AcDbEntity
8
0
100
AcDbPolyline
90
4
70
1
43
0.0
10
-223.77401321697377
20
66.874266387974089
10
-224.01898332564176
20
52.837580530876778
10
-238.05566344483844
20
53.082657747025159
10
-237.81067803510169
20
67.119244147176417
0
LWPOLYLINE
5
154
100
AcDbEntity
8
0
100
AcDbPolyline
90
4
70
1
43
0.0
10
-168.45003120009244
20
101.07326408977796
10
-182.27552597014252
20
98.63552843876171
10
-184.71335342757047
20
112.46103085934608
10
-170.88787395858904
20
114.89876651036228
0
LWPOLYLINE
5
155
100
AcDbEntity
8
0
100
AcDbPolyline
90
4
70
1
43
0.0
10
-105.28358591699735
20
98.607450977836933
10
-119.10908833758178
20
101.04518662885314
10
-116.67125322961945
20
114.87068904943753
10
-102.84575080903508
20
112.43295339842132
0
LWPOLYLINE
5
156
100
AcDbEntity
8
0
100
AcDbPolyline
90
4
70
1
43
0.0
10
-121.87653906583925
20
60.607449789638181
10
-121.38658354743461
20
74.637718761081373
10
-107.35641403293749
20
74.147763242676703
10
-107.84636955134212
20
60.117496183867132
0
LINE
5
157
100
AcDbEntity
8
0
100
AcDbLine
10
-265.93430228392424
20
118.65404657844195
30
0
11
-266.94404387745567
21
118.47588417387701
31
0
0
ARC
5
158
100
AcDbEntity
8
0
100
AcDbCircle
10
-266.77028435386637
20
117.49109606064549
30
0
40
1.0000000000000442
210
0
220
0
230
1
100
AcDbArc
50
100.00647813241262
51
190.00647813240872
0
LINE
5
159
100
AcDbEntity
8
0
100
AcDbLine
10
-267.75507246709788
20
117.31733653705626
30
0
11
-266.2412285318938
21
108.73757364474659
31
0
0
LINE
5
160
100
AcDbEntity
8
0
100
AcDbLine
10
-266.2412285318938
20
108.73757364474659
30
0
11
-263.56240924363999
21
94.956696790803662
31
0
0
LINE
5
161
100
AcDbEntity
8
0
100
AcDbLine
10
-263.56240924363999
20
94.956696790803662
30
0
11
-262.78584453010643
21
90.106953639286019
31
0
0
LINE
5
162
100
AcDbEntity
8
0
100
AcDbLine
10
-262.78584453010643
20
90.106953639286019
30
0
11
-261.07490963872357
21
76.172748601930593
31
0
0
LINE
5
163
100
AcDbEntity
8
0
100
AcDbLine
10
-261.07490963872357
20
76.172748601930593
30
0
11
-260.83176413822309
21
71.18006360407162
31
0
0
LINE
5
164
100
AcDbEntity
8
0
100
AcDbLine
10
-260.83176413822309
20
71.18006360407162
30
0
11
-260.83176413822309
21
53.276571413977997
31
0
0
ARC
5
165
100
AcDbEntity
8
0
100
AcDbCircle
10
-259.83176413822309
20
53.27657141397799
30
0
40
1.0000000000000142
210
0
220
0
230
1
100
AcDbArc
50
180
51
264.02669476134622
0
LINE
5
166
100
AcDbEntity
8
0
100
AcDbLine
10
-259.93582923099564
20
52.282000925542761
30
0
11
-224.97020485878136
21
48.623435759519396
31
0
0
SPLINE
5
167
100
AcDbEntity
8
0
100
AcDbSpline
70
4
71
3
72
8
73
4
74
0
42
0.000000001
43
0.0000000001
44
0.0000000001
40
0
40
0
40
0
40
0
40
1
40
1
40
1
40
1
41
1
41
1
41
1
41
1
10
-224.1574579966877
20
48.097683391069239
30
0
10
-224.30786750126032
20
48.488763882184891
30
0
10
-224.45829230690146
20
48.558958012655246
30
0
10
-224.97020485878136
20
48.623435759519396
30
0
0
LINE
5
168
100
AcDbEntity
8
0
100
AcDbLine
10
-224.1574579966877
20
48.097683391069239
30
0
11
-222.65590292835378
21
43.9723845137555
31
0
0
SPLINE
5
169
100
AcDbEntity
8
0
100
AcDbSpline
70
4
71
3
72
8
73
4
74
0
42
0.000000001
43
0.0000000001
44
0.0000000001
40
0
40
0
40
0
40
0
40
1
40
1
40
1
40
1
41
1
41
1
41
1
41
1
10
-222.65590292835378
20
43.9723845137555
30
0
10
-222.52194207255187
20
43.664032477723921
30
0
10
-222.24226914024499
20
43.443322571977845
30
0
10
-221.91124582163638
20
43.384660486356523
30
0
0
LINE
5
170
100
AcDbEntity
8
0
100
AcDbLine
10
-221.91124582163638
20
43.384660486356523
30
0
11
-203.04912889480732
21
42.732859468597781
31
0
0
SPLINE
5
171
100
AcDbEntity
8
0
100
AcDbSpline
70
4
71
3
72
8
73
4
74
0
42
0.000000001
43
0.0000000001
44
0.0000000001
40
0
40
0
40
0
40
0
40
1
40
1
40
1
40
1
41
1
41
1
41
1
41
1
10
-201.85813961633187
20
43.250389485066009
30
0
10
-201.99211577320241
20
42.942037449034416
30
0
10
-202.27178870550929
20
42.721327603058143
30
0
10
-203.04912889480732
20
42.732859468597781
30
0
0
LINE
5
172
100
AcDbEntity
8
0
100
AcDbLine
10
-201.85813961633187
20
43.250389485066009
30
0
11
-200.13246979586427
21
47.998810276413828
31
0
0
SPLINE
5
173
100
AcDbEntity
8
0
100
AcDbSpline
70
4
71
3
72
8
73
4
74
0
42
0.000000001
43
0.0000000001
44
0.0000000001
40
0
40
0
40
0
40
0
40
1
40
1
40
1
40
1
41
1
41
1
41
1
41
1
10
-200.13246979586427
20
47.998810276413828
30
0
10
-199.97202279027445
20
48.399918705378852
30
0
10
-199.74138978290696
20
48.660638873403137
30
0
10
-199.25002656618901
20
48.600472680782147
30
0
0
LINE
5
174
100
AcDbEntity
8
0
100
AcDbLine
10
-199.25002656618904
20
48.600472680782147
30
0
11
-183.3346659402861
21
48.037517198448256
31
0
0
SPLINE
5
175
100
AcDbEntity
8
0
100
AcDbSpline
70
4
71
3
72
8
73
4
74
0
42
0.000000001
43
0.0000000001
44
0.0000000001
40
0
40
0
40
0
40
0
40
1
40
1
40
1
40
1
41
1
41
1
41
1
41
1
10
-182.58990172608839
20
48.62524128561703
30
0
10
-182.61266971620063
20
48.248099111700924
30
0
10
-182.97366782824338
20
47.977351005827259
30
0
10
-183.3346659402861
20
48.037517198448256
30
0
0
LINE
5
176
100
AcDbEntity
8
0
100
AcDbLine
10
-182.58990172608839
20
48.62524128561703
30
0
11
-181.73163418483884
21
53.926188446556402
31
0
0
SPLINE
5
177
100
AcDbEntity
8
0
100
AcDbSpline
70
4
71
3
72
8
73
4
74
0
42
0.000000001
43
0.0000000001
44
0.0000000001
40
0
40
0
40
0
40
0
40
1
40
1
40
1
40
1
41
1
41
1
41
1
41
1
10
-180.93883991623071
20
54.972078647588553
30
0
10
-181.37925057443127
20
54.986217791313798
30
0
10
-181.58120937919759
20
54.748461180185146
30
0
10
-181.73163418483878
20
53.926188446556402
30
0
0
LINE
5
178
100
AcDbEntity
8
0
100
AcDbLine
10
-180.93883991623071
20
54.972078647588553
30
0
11
-106.84971914545834
21
54.972078647588553
31
0
0
SPLINE
5
179
100
AcDbEntity
8
0
100
AcDbSpline
70
4
71
3
72
8
73
4
74
0
42
0.000000001
43
0.0000000001
44
0.0000000001
40
0
40
0
40
0
40
0
40
1
40
1
40
1
40
1
41
1
41
1
41
1
41
1
10
-106.84971914545834
20
54.972078647588553
30
0
10
-106.40930083672345
20
54.986217791313798
30
0
10
-106.2073420319571
20
54.748461180185146
30
0
10
-106.05692487685026
20
53.926188446556402
30
0
0
LINE
5
180
100
AcDbEntity
8
0
100
AcDbLine
10
-106.05692487685026
20
53.926188446556409
30
0
11
-105.19865733560069
21
48.62524128561703
31
0
0
SPLINE
5
181
100
AcDbEntity
8
0
100
AcDbSpline
70
4
71
3
72
8
73
4
74
0
42
0.000000001
43
0.0000000001
44
0.0000000001
40
0
40
0
40
0
40
0
40
1
40
1
40
1
40
1
41
1
41
1
41
1
41
1
10
-105.19865733560069
20
48.62524128561703
30
0
10
-105.17588934548834
20
48.248099111700924
30
0
10
-104.81489123344559
20
47.977351005827259
30
0
10
-104.45389312140286
20
48.037517198448256
30
0
0
LINE
5
182
100
AcDbEntity
8
0
100
AcDbLine
10
-104.45389312140286
20
48.037517198448249
30
0
11
-88.538417737485403
21
48.600472680782147
31
0
0
SPLINE
5
183
100
AcDbEntity
8
0
100
AcDbSpline
70
4
71
3
72
8
73
4
74
0
42
0.000000001
43
0.0000000001
44
0.0000000001
40
0
40
0
40
0
40
0
40
1
40
1
40
1
40
1
41
1
41
1
41
1
41
1
10
-87.655982158344386
20
47.998810276413828
30
0
10
-87.816429163934203
20
48.399918705378852
30
0
10
-88.047062171301633
20
48.660638873403137
30
0
10
-88.538417737485346
20
48.600472680782147
30
0
0
LINE
5
184
100
AcDbEntity
8
0
100
AcDbLine
10
-87.655982158344386
20
47.998810276413828
30
0
11
-85.930411794822817
21
43.250389485066009
31
0
0
SPLINE
5
185
100
AcDbEntity
8
0
100
AcDbSpline
70
4
71
3
72
8
73
4
74
0
42
0.000000001
43
0.0000000001
44
0.0000000001
40
0
40
0
40
0
40
0
40
1
40
1
40
1
40
1
41
1
41
1
41
1
41
1
10
-85.930411794822817
20
43.250389485066009
30
0
10
-85.796343831540511
20
42.942037449034416
30
0
10
-85.516770356179677
20
42.721327591851292
30
0
10
-84.739422516347375
20
42.732859457390944
30
0
0
LINE
5
186
100
AcDbEntity
8
0
100
AcDbLine
10
-84.739422516347375
20
42.732859457390944
30
0
11
-65.877305589518329
21
43.384660486356523
31
0
0
SPLINE
5
187
100
AcDbEntity
8
0
100
AcDbSpline
70
4
71
3
72
8
73
4
74
0
42
0.000000001
43
0.0000000001
44
0.0000000001
40
0
40
0
40
0
40
0
40
1
40
1
40
1
40
1
41
1
41
1
41
1
41
1
10
-65.132541375320557
20
43.9723845137555
30
0
10
-65.26661698913712
20
43.664032477723921
30
0
10
-65.546190464497982
20
43.443322571977845
30
0
10
-65.877305589518329
20
43.384660486356523
30
0
0
LINE
5
188
100
AcDbEntity
8
0
100
AcDbLine
10
-65.132541375320557
20
43.9723845137555
30
0
11
-63.631097239734125
21
48.097683391069239
31
0
0
SPLINE
5
189
100
AcDbEntity
8
0
100
AcDbSpline
70
4
71
3
72
8
73
4
74
0
42
0.000000001
43
0.0000000001
44
0.0000000001
40
0
40
0
40
0
40
0
40
1
40
1
40
1
40
1
41
1
41
1
41
1
41
1
10
-63.631097239734125
20
48.097683391069239
30
0
10
-63.480680084627252
20
48.488763882184891
30
0
10
-63.330266754787559
20
48.558958012655246
30
0
10
-62.818250920694467
20
48.623436237677794
30
0
0
LINE
5
190
100
AcDbEntity
8
0
100
AcDbLine
10
-62.818250920694467
20
48.623436237677794
30
0
11
-27.62249654710676
21
52.306081237337025
31
0
0
ARC
5
191
100
AcDbEntity
8
0
100
AcDbCircle
10
-27.726561656516168
20
53.300651724031454
30
0
40
0.99999999999999201
210
-0
220
0
230
1
100
AcDbArc
50
-84.026693802920079
51
0
0
LINE
5
192
100
AcDbEntity
8
0
100
AcDbLine
10
-26.726561656516175
20
53.300651724031454
30
0
11
-26.726561656516171
21
71.152085600092875
31
0
0
LINE
5
193
100
AcDbEntity
8
0
100
AcDbLine
10
-26.726561656516171
20
71.152085600092875
30
0
11
-26.483894096310738
21
76.144776199469788
31
0
0
LINE
5
194
100
AcDbEntity
8
0
100
AcDbLine
10
-26.483894096310738
20
76.144776199469788
30
0
11
-24.772966855462197
21
90.078977411558043
31
0
0
LINE
5
195
100
AcDbEntity
8
0
100
AcDbLine
10
-24.772966855462197
20
90.078977411558043
30
0
11
-23.995901430928008
21
94.928647917872524
31
0
0
LINE
5
196
100
AcDbEntity
8
0
100
AcDbLine
10
-23.995901430928008
20
94.928647917872524
30
0
11
-21.317198813322484
21
108.70953242234972
31
0
0
LINE
5
197
100
AcDbEntity
8
0
100
AcDbLine
10
-21.317198813322484
20
108.70953242234972
30
0
11
-19.805491370728262
21
117.27712252251921
31
0
0
ARC
5
198
100
AcDbEntity
8
0
100
AcDbCircle
10
-20.790279261344637
20
117.45088330778272
30
0
40
1.0000000000000209
210
-0
220
0
230
1
100
AcDbArc
50
-10.006551537660876
51
79.993448462337341
0
LINE
5
199
100
AcDbEntity
8
0
100
AcDbLine
10
-20.616518476081094
20
118.43567119839909
30
0
11
-21.854159233452254
21
118.65404657844195
31
0
0
SPLINE
5
200
100
AcDbEntity
8
0
100
AcDbSpline
70
4
71
3
72
8
73
4
74
0
42
0.000000001
43
0.0000000001
44
0.0000000001
40
0
40
0
40
0
40
0
40
1
40
1
40
1
40
1
41
1
41
1
41
1
41
1
10
-21.854159233452254
20
118.65404657844195
30
0
10
-22.106456641357518
20
118.69846558065701
30
0
10
-22.36497010839123
20
118.69405887289332
30
0
10
-22.63632117200034
20
118.63399452801036
30
0
0
LINE
5
201
100
AcDbEntity
8
0
100
AcDbLine
10
-22.63632117200034
20
118.63399452801035
30
0
11
-47.772174605450424
21
114.1890034906416
31
0
0
SPLINE
5
202
100
AcDbEntity
8
0
100
AcDbSpline
70
4
71
3
72
8
73
4
74
0
42
0.000000001
43
0.0000000001
44
0.0000000001
40
0
40
0
40
0
40
0
40
1
40
1
40
1
40
1
41
1
41
1
41
1
41
1
10
-47.772174605450424
20
114.1890034906416
30
0
10
-48.206977422000357
20
114.10145842651019
30
0
10
-48.43761425463498
20
114.0713765255957
30
0
10
-48.654614009858548
20
114.07869808693219
30
0
0
LINE
5
203
100
AcDbEntity
8
0
100
AcDbLine
10
-48.654614009858548
20
114.07869808693219
30
0
11
-76.233818586509813
21
115.83986638660717
31
0
0
SPLINE
5
204
100
AcDbEntity
8
0
100
AcDbSpline
70
4
71
3
72
8
73
4
74
0
42
0.000000001
43
0.0000000001
44
0.0000000001
40
0
40
0
40
0
40
0
40
1
40
1
40
1
40
1
41
1
41
1
41
1
41
1
10
-76.233818586509813
20
115.83986638660717
30
0
10
-76.768797499340138
20
115.9082545128215
30
0
10
-77.086172264736319
20
116.45807546221702
30
0
10
-76.94287775707383
20
116.99305437504736
30
0
0
LINE
5
205
100
AcDbEntity
8
0
100
AcDbLine
10
-76.94287775707383
20
116.99305437504736
30
0
11
-76.08400582361358
21
126.82662274968116
31
0
0
SPLINE
5
206
100
AcDbEntity
8
0
100
AcDbSpline
70
4
71
3
72
8
73
4
74
0
42
0.000000001
43
0.0000000001
44
0.0000000001
40
0
40
0
40
0
40
0
40
1
40
1
40
1
40
1
41
1
41
1
41
1
41
1
10
-77.016583004634938
20
128.06003424091622
30
0
10
-76.414922034741807
20
127.77925963166842
30
0
10
-75.99376012087005
20
127.56867867473252
30
0
10
-76.08400582361358
20
126.82662274968116
30
0
0
LINE
5
207
100
AcDbEntity
8
0
100
AcDbLine
10
-77.016583004634938
20
128.06003424091622
30
0
11
-129.33263504823196
21
147.11127237593618
31
0
0
SPLINE
5
208
100
AcDbEntity
8
0
100
AcDbSpline
70
4
71
3
72
8
73
4
74
0
42
0.000000001
43
0.0000000001
44
0.0000000001
40
0
40
0
40
0
40
0
40
1
40
1
40
1
40
1
41
1
41
1
41
1
41
1
10
-129.33263504823196
20
147.11127237593618
30
0
10
-130.30532398065071
20
147.4722704879789
30
0
10
-130.63804571787657
20
147.48992027063656
30
0
10
-131.2880504140868
20
147.48230033846187
30
0
0
LINE
5
209
100
AcDbEntity
8
0
100
AcDbLine
10
-131.2880504140868
20
147.48230033846187
30
0
11
-156.5005086476022
21
147.48230033846187
31
0
0
SPLINE
5
210
100
AcDbEntity
8
0
100
AcDbSpline
70
4
71
3
72
8
73
4
74
0
42
0.000000001
43
0.0000000001
44
0.0000000001
40
0
40
0
40
0
40
0
40
1
40
1
40
1
40
1
41
1
41
1
41
1
41
1
10
-158.45590871238846
20
147.11127237593618
30
0
10
-157.48321977996966
20
147.4722704879789
30
0
10
-157.15040623633206
20
147.48992027063656
30
0
10
-156.5005086476022
20
147.48230033846187
30
0
0
LINE
5
211
100
AcDbEntity
8
0
100
AcDbLine
10
-158.45590871238846
20
147.11127237593618
30
0
11
-210.77186894957364
21
128.06003424091622
31
0
0
SPLINE
5
212
100
AcDbEntity
8
0
100
AcDbSpline
70
4
71
3
72
8
73
4
74
0
42
0.000000001
43
0.0000000001
44
0.0000000001
40
0
40
0
40
0
40
0
40
1
40
1
40
1
40
1
41
1
41
1
41
1
41
1
10
-210.77186894957364
20
128.06003424091622
30
0
10
-211.37353757000113
20
127.77925963166842
30
0
10
-211.7946994838729
20
127.56867867473252
30
0
10
-211.7044537811293
20
126.82662274968116
30
0
0
LINE
5
213
100
AcDbEntity
8
0
100
AcDbLine
10
-211.7044537811293
20
126.82662274968116
30
0
11
-210.8456813046152
21
116.99305437504736
31
0
0
SPLINE
5
214
100
AcDbEntity
8
0
100
AcDbSpline
70
4
71
3
72
8
73
4
74
0
42
0.000000001
43
0.0000000001
44
0.0000000001
40
0
40
0
40
0
40
0
40
1
40
1
40
1
40
1
41
1
41
1
41
1
41
1
10
-211.55473282464493
20
115.83986638660717
30
0
10
-211.01976156234886
20
115.9082545128215
30
0
10
-210.79624355189145
20
116.45797600527096
30
0
10
-210.8456813046152
20
116.99305437504736
30
0
0
LINE
5
215
100
AcDbEntity
8
0
100
AcDbLine
10
-211.55473282464493
20
115.83986638660717
30
0
11
-239.13383794435009
21
114.07869808693219
31
0
0
SPLINE
5
216
100
AcDbEntity
8
0
100
AcDbSpline
70
4
71
3
72
8
73
4
74
0
42
0.000000001
43
0.0000000001
44
0.0000000001
40
0
40
0
40
0
40
0
40
1
40
1
40
1
40
1
41
1
41
1
41
1
41
1
10
-240.01628117402532
20
114.1890034906416
30
0
10
-239.58148600800973
20
114.10145842651019
30
0
10
-239.3508376995737
20
114.0713765255957
30
0
10
-239.13383794435009
20
114.07869808693219
30
0
0
LINE
5
217
100
AcDbEntity
8
0
100
AcDbLine
10
-240.01628117402532
20
114.1890034906416
30
0
11
-265.15214225800969
21
118.63398687747605
31
0
0
SPLINE
5
218
100
AcDbEntity
8
0
100
AcDbSpline
70
4
71
3
72
8
73
4
74
0
42
0.000000001
43
0.0000000001
44
0.0000000001
40
0
40
0
40
0
40
0
40
1
40
1
40
1
40
1
41
1
41
1
41
1
41
1
10
-265.93430228392424
20
118.65404657844195
30
0
10
-265.68201826445403
20
118.69846558065701
30
0
10
-265.42349140898529
20
118.69405887289332
30
0
10
-265.15214225800969
20
118.63398687747605
30
0
0
ENDSEC
0
SECTION
2
OBJECTS
0
DICTIONARY
5
C
100
AcDbDictionary
3
ACAD_GROUP
350
D
3
ACAD_MLINESTYLE
350
17
0
DICTIONARY
5
D
100
AcDbDictionary
0
DICTIONARY
5
1A
330
C
100
AcDbDictionary
0
DICTIONARY
5
17
100
AcDbDictionary
0
ENDSEC
0
EOF
